<?xml version="1.0" encoding="utf-8"?>
<!-- Generated by IcoMoon.io -->
<!DOCTYPE svg PUBLIC "-//W3C//DTD SVG 1.1//EN" "http://www.w3.org/Graphics/SVG/1.1/DTD/svg11.dtd">
<svg version="1.1" xmlns="http://www.w3.org/2000/svg" xmlns:xlink="http://www.w3.org/1999/xlink" width="64" height="64" viewBox="0 0 64 64">
<path d="M60 20h-12c-0.343 0-0.952-0.377-1.106-0.683l-2.211-4.422c-0.825-1.65-2.838-2.894-4.683-2.894h-16c-1.845 0-3.858 1.244-4.683 2.894l-2.211 4.422c-0.153 0.307-0.763 0.683-1.106 0.683v-2c0-1.105-0.896-2-2-2h-8c-1.104 0-2 0.895-2 2v2c-2.206 0-4 1.794-4 4v36c0 2.206 1.794 4 4 4h56c2.206 0 4-1.794 4-4v-36c0-2.206-1.794-4-4-4zM4 60v-36h12c1.845 0 3.858-1.244 4.683-2.894l2.211-4.422c0.153-0.306 0.763-0.683 1.106-0.683h16c0.343 0 0.952 0.377 1.106 0.683l2.211 4.422c0.825 1.65 2.838 2.894 4.683 2.894h12l0 36h-56z" fill="#000000"></path>
<path d="M32 23.5c-9.098 0-16.5 7.402-16.5 16.5s7.402 16.5 16.5 16.5 16.5-7.402 16.5-16.5-7.402-16.5-16.5-16.5zM32 52.375c-6.824 0-12.375-5.551-12.375-12.375s5.551-12.375 12.375-12.375 12.375 5.551 12.375 12.375-5.551 12.375-12.375 12.375z" fill="#000000"></path>
<path d="M40 40c0 4.418-3.582 8-8 8s-8-3.582-8-8c0-4.418 3.582-8 8-8s8 3.582 8 8z" fill="#000000"></path>
<path d="M52 28h4v4h-4v-4z" fill="#000000"></path>
</svg>
